PathFileType	4	(X/Y/Z)	Kaydara	
DataRate	CameraRate	NumFrames	NumMarkers	Units	OrigDataRate	OrigDataStartFrame	OrigNumFrames	
120.00	120.00	4	72	mm	120.00	1	261	
Frame#	Time	Hips			RightUpLeg			RightLeg			RightFoot			RightFoot_End			LeftUpLeg			LeftLeg			LeftFoot			LeftFoot_End			Spine			Spine1			Spine2			Spine3			Neck			Head			Head_End			RightShoulder			RightArm			RightForeArm			RightHand			RightHandThumb1			RightHandThumb2			RightHandThumb3			RightHandThumb3_End			RightInHandIndex			RightHandIndex1			RightHandIndex2			RightHandIndex3			RightHandIndex3_End			RightInHandMiddle			RightHandMiddle1			RightHandMiddle2			RightHandMiddle3			RightHandMiddle3_End			RightInHandRing			RightHandRing1			RightHandRing2			RightHandRing3			RightHandRing3_End			RightInHandPinky			RightHandPinky1			RightHandPinky2			RightHandPinky3			RightHandPinky3_End			LeftShoulder			LeftArm			LeftForeArm			LeftHand			LeftHandThumb1			LeftHandThumb2			LeftHandThumb3			LeftHandThumb3_End			LeftInHandIndex			LeftHandIndex1			LeftHandIndex2			LeftHandIndex3			LeftHandIndex3_End			LeftInHandMiddle			LeftHandMiddle1			LeftHandMiddle2			LeftHandMiddle3			LeftHandMiddle3_End			LeftInHandRing			LeftHandRing1			LeftHandRing2			LeftHandRing3			LeftHandRing3_End			LeftInHandPinky			LeftHandPinky1			LeftHandPinky2			LeftHandPinky3			LeftHandPinky3_End			
		X1	Y1	Z1	X2	Y2	Z2	X3	Y3	Z3	X4	Y4	Z4	X5	Y5	Z5	X6	Y6	Z6	X7	Y7	Z7	X8	Y8	Z8	X9	Y9	Z9	X10	Y10	Z10	X11	Y11	Z11	X12	Y12	Z12	X13	Y13	Z13	X14	Y14	Z14	X15	Y15	Z15	X16	Y16	Z16	X17	Y17	Z17	X18	Y18	Z18	X19	Y19	Z19	X20	Y20	Z20	X21	Y21	Z21	X22	Y22	Z22	X23	Y23	Z23	X24	Y24	Z24	X25	Y25	Z25	X26	Y26	Z26	X27	Y27	Z27	X28	Y28	Z28	X29	Y29	Z29	X30	Y30	Z30	X31	Y31	Z31	X32	Y32	Z32	X33	Y33	Z33	X34	Y34	Z34	X35	Y35	Z35	X36	Y36	Z36	X37	Y37	Z37	X38	Y38	Z38	X39	Y39	Z39	X40	Y40	Z40	X41	Y41	Z41	X42	Y42	Z42	X43	Y43	Z43	X44	Y44	Z44	X45	Y45	Z45	X46	Y46	Z46	X47	Y47	Z47	X48	Y48	Z48	X49	Y49	Z49	X50	Y50	Z50	X51	Y51	Z51	X52	Y52	Z52	X53	Y53	Z53	X54	Y54	Z54	X55	Y55	Z55	X56	Y56	Z56	X57	Y57	Z57	X58	Y58	Z58	X59	Y59	Z59	X60	Y60	Z60	X61	Y61	Z61	X62	Y62	Z62	X63	Y63	Z63	X64	Y64	Z64	X65	Y65	Z65	X66	Y66	Z66	X67	Y67	Z67	X68	Y68	Z68	X69	Y69	Z69	X70	Y70	Z70	X71	Y71	Z71	X72	Y72	Z72	

1	0.0	4081.203	893.81699	129.612	4145.652387583578	888.1476306941141	74.29361862196926	4063.334900794934	487.66794939545565	-14.733645247566963	4048.6823827324465	106.35578735855806	-69.98011719583828	3941.1222207076216	27.999277510505852	65.06036799040618	4031.8568910110216	874.7162426994197	198.16630753328724	3932.9986856501464	481.2117049343934	301.65083135309146	3837.3909219801385	64.28090829439007	403.4059447096433	3688.6143874025365	-3.634486809638025	306.19160646071396	4013.9884775591677	1009.2808060401354	79.62048758595289	3950.373189095919	1065.5846935149777	33.197044682036385	3879.938680102041	1117.2618077365885	-17.058037607222165	3806.7965832160994	1154.959577822554	-67.6576648817143	3727.951852113964	1197.0317886689193	-119.58170764329206	3653.3340182084817	1233.1766856677625	-163.9023281227562	3514.7627002527142	1311.6712283705465	-171.79675863521388	3769.258866170977	1182.8617389469503	-123.36976597865623	3811.7390784399236	1159.8233993823494	-204.90360936572202	3843.3010858304137	944.6847704145549	-184.07359405071915	3896.4430194057595	757.0649838788784	-175.70800581141813	3886.6592778664476	744.9746278923566	-194.8535224606213	3871.5132509970535	726.7539165462591	-196.26463798086473	3863.1180058044024	712.3589533907349	-194.3945703885776	3857.9606160615135	698.8990133363491	-190.39511027657534	3894.621670290384	737.5443379113494	-187.52682902123578	3894.8663209081255	702.2720037091433	-190.05702548974776	3888.9253739332457	678.8223735727116	-185.7116847168932	3880.105101410085	668.9723223485777	-181.7860312361688	3869.3463894656966	664.0090122973331	-177.71103422013402	3900.1769929204333	734.1839310739936	-179.38946468469317	3903.422236744164	697.9624067205885	-177.45758344201369	3897.6640752659514	672.0465771570072	-171.62640945038365	3887.3704340211443	660.0056560791335	-166.3674124966442	3875.767472672856	654.4984785866145	-161.65445487640397	3904.1717607950204	732.6805960736477	-173.61971023675986	3910.770755244595	698.8281372635954	-167.00810023257964	3906.4865631244006	675.9623533378646	-160.81456613367712	3896.9476534707073	664.200601372814	-155.15180178026372	3886.222814180517	658.9526514993805	-150.4408304571845	3908.1687990134214	732.2006455704782	-166.55096649506729	3916.9411907542117	700.7457638155527	-156.27695727181722	3914.6273590299666	682.1506842846184	-149.6125314306152	3908.2098666246807	673.4337422729241	-144.65738322629417	3899.0203055758834	668.705574946841	-140.009596878168	3738.70406161189	1181.8858156732717	-81.02151330612335	3711.901976729652	1136.6232864420208	4.273792874741103	3846.347938216896	968.9155694215231	-63.05655835041069	3956.281893019418	818.4362418145254	-129.17368761719146	3953.6016429914325	815.3254343153393	-155.27444181959132	3972.354156544597	810.8071753236687	-170.5499083326043	3987.747190179489	805.3766402485326	-178.4903729878587	4002.5761860338143	798.8955231255973	-182.8024683081523	3960.3138786655204	806.1194889301142	-148.61755312071145	3981.2300730899387	781.998800591935	-165.65311447859068	4003.3057320964554	769.128289121324	-174.20840811606902	4017.633824549214	767.0079233696672	-178.59132637456528	4029.900377468582	769.2199721230818	-181.58776663372475	3966.2908290638725	800.9329681716799	-140.53136253277856	3989.92264328383	774.599867170375	-152.77445260352903	4014.7417661715153	759.9543586722234	-160.98364586102088	4032.378480541158	757.1077306552179	-165.73097497735318	4045.970655682127	759.3878682631648	-168.74687031165877	3969.9228533562855	797.8247325419981	-134.40301273427661	3994.0879412301306	771.3528021842847	-140.1117694453575	4016.4301020680978	758.0153727645621	-146.0961948767838	4033.819017835394	754.9656323917442	-150.0536464704887	4046.7776917905317	756.9655150376803	-152.5947173438419	3973.9515464693104	795.4097167008259	-126.69446533928958	3998.4149955782905	769.4335808434497	-127.24835341982924	4017.308047768912	757.976411487881	-130.1889446987676	4030.476427552614	755.3760366778057	-132.17987968595952	4042.23473545486	756.9312786937637	-133.915409470298
2	0.008	4081.203	893.81699	129.612	4146.239935422562	888.4519136849254	74.62160801029547	4063.7007399508357	488.0011886358292	-14.36801344798546	4048.270434279666	106.39049026537269	-68.81928652230009	3940.490941498841	28.263286692890805	66.28955936271136	4031.233871216483	874.4008070524582	197.85439252505327	3932.345164298101	480.99488228036705	301.68984728123047	3836.4162824578834	64.44852537890135	404.5305891236748	3687.649331562273	-3.172635987986185	307.1207535298323	4014.0666524561316	1009.3163995294138	79.5872519514568	3950.5153782114194	1065.643457615966	33.10814381012707	3880.148486349013	1117.3449886893936	-17.21325209427239	3807.0762050956755	1155.0689658119657	-67.8904944269268	3728.2951970287477	1197.1695040923814	-119.88605816575475	3653.6506327564985	1233.2851583373306	-164.21075110244544	3515.1032311553654	1311.8062630746688	-172.29818183147052	3769.730561989847	1183.208930047388	-123.59446214201647	3813.0407133138056	1161.4458391036114	-205.24476587672854	3845.783440605444	946.1664051015562	-185.89365732250855	3900.6751292624217	759.5560311345005	-179.13473507460503	3891.076068362821	747.7782395459956	-198.4167050700674	3876.036144534235	729.7450607850541	-200.2344885790595	3867.717300967803	715.4606235930496	-198.66847046609058	3862.6257505068766	702.0756528410219	-194.94031406392673	3899.07673253144	740.3159950183102	-191.15953419031797	3899.6180227639406	705.3490444192671	-194.15859440607332	3893.8176407040314	682.0514696679576	-190.23418807016796	3885.0235401218138	672.2554184814157	-186.56882284916634	3874.245198435611	667.3094621944988	-182.70831636720365	3904.6254268012804	736.8874945026838	-183.06704555916858	3908.1564361551204	700.927016129368	-181.61672439133335	3902.5497402151013	675.1670583363654	-176.2493937465494	3892.286753783067	663.18646259966	-171.30659263023836	3880.6618660681106	657.6959290794789	-166.8293806061605	3908.60868527783	735.3288016265655	-177.31629824867812	3915.455970201735	701.6638272998266	-171.15062313077925	3911.3013754604244	678.923211713554	-165.36524374184057	3901.790749954424	667.2139700415981	-160.00952884392981	3891.044684565882	661.9789804403651	-155.52119118947738	3912.5780019855165	734.7719190310157	-170.2616423564775	3921.5636277380713	703.4434913728768	-160.40302266603973	3919.348707916194	684.9311416411128	-154.0695261274615	3912.9494929701837	676.2440356957726	-149.3403215568896	3903.7397763101653	671.5224764479009	-144.89089300030412	3738.880199843334	1181.7903105493497	-81.37051429712523	3711.4427444072853	1135.6241455922723	3.5124707260003976	3847.1709905535104	969.1696322220461	-65.03113794395463	3958.823488061769	820.0211941853004	-131.93537390490386	3956.3465871480093	817.1704131170441	-157.94059527753038	3975.299965386913	812.845841004385	-173.00752106965123	3990.840395447697	807.5398246467889	-180.8276499454447	4005.798695761866	801.1536460216182	-185.0607206962565	3963.111081202087	807.9589944043514	-151.38295382485535	3984.416905697645	784.1549834525996	-168.43517328287555	4006.7280847840566	771.4630344045307	-176.9017438863229	4021.14669444269	769.4145992218072	-181.15286966344385	4033.450457760801	771.6598237224933	-183.98853367097692	3969.0932120288303	802.731270706188	-143.35911679913983	3993.107870356392	776.6847725009192	-155.65221121139606	4018.183369365415	762.2275947728452	-163.77263803296412	4035.9289898891006	759.4646211514996	-168.36482708839898	4049.561732872959	761.779538804971	-171.20668108251314	3972.7194414109354	799.5862631826207	-137.27558049914728	3997.2240336249724	773.3404946300044	-143.0715178686173	4019.7884058183336	760.1600987592328	-148.98670838077084	4037.281706412447	757.1872699571984	-152.7988333596334	4050.2782104171006	759.2180633606861	-155.17830882687008	3976.7263213358815	797.1163854859791	-129.60886847931835	4001.489478140502	771.3153717388074	-130.27248939098124	4020.5570386284985	759.9718561862055	-133.169940762088	4033.7998981025685	757.4217329298292	-135.06082434393224	4045.59076230614	759.0009899820666	-136.656631233673
3	0.017	4081.203	893.81699	129.612	4146.847149982294	888.7505529543188	74.96789415481818	4063.9884008945414	488.3667961260826	-14.04420698892993	4047.7202158168084	106.45903595075971	-67.70013355552415	3939.725029488512	28.560503361064907	67.47841418768421	4030.5861876394506	874.0915305163244	197.5324586895607	3931.6662078098216	480.81109000183517	301.8143305901309	3835.3868527593977	64.65562684146295	405.7278963732729	3686.6582724869927	-2.6942904657550812	308.09974642475714	4014.164861325284	1009.3501687641451	79.51730442647984	3950.688425732621	1065.7069514564266	32.97223741591057	3880.3993017052717	1117.4429829825096	-17.423117893105168	3807.4041272918507	1155.2081049877265	-68.18163418413774	3728.6940170073426	1197.3514263221664	-120.25224323538646	3654.0245514537323	1233.4454773939478	-164.58038034670477	3515.4871201605893	1311.9676197802885	-172.8674885413132	3770.255308785986	1183.6023100862901	-123.87754559579368	3814.3358267975236	1163.0773552475873	-205.6263609473166	3848.2968353931597	947.7212574643313	-187.67804015535222	3904.7983001471	762.1861717617312	-182.5375381358009	3895.387376728053	750.7417368663955	-201.95402232071407	3880.4455186640816	732.9242659264787	-204.19164048426043	3872.194598136227	718.7682851796022	-202.9392313214891	3867.159353832441	705.4717852163467	-199.49068187520393	3903.4165074622924	743.2424001154918	-194.76615096849747	3904.2331533518054	708.6027499606159	-198.23847167176396	3898.5574216763416	685.4777401082615	-194.74577170377788	3889.782992159313	675.7510023426971	-191.3509659043477	3878.981928654971	670.8368031721716	-187.71586244989058	3908.9514249565377	739.740694339113	-186.71981300286043	3912.7435738765253	704.0598726229034	-185.75602768903727	3907.2701019642745	678.4774276562767	-180.86445827767494	3897.0295070167303	666.5752776407035	-176.2503232752705	3885.3791054576955	661.1169755575057	-172.0208351576889	3912.918654918146	738.1224128202126	-180.9887864834504	3919.98820281744	704.6577536248773	-175.27390586762755	3915.9464501100815	682.0603848558652	-169.90722908448183	3906.4556835881235	670.4207156316836	-164.87067744666095	3895.6848035951725	665.2131451495721	-160.61627632397088	3916.8557517564072	737.4835604172041	-173.94950335267913	3926.0279193867223	706.2900547584115	-164.5112729229998	3923.8972725116046	687.8736327121413	-158.51738131982714	3917.5095986686347	679.2281896365818	-154.02306710714672	3908.2762073377557	674.525690630824	-149.78207284469704	3739.1094625936144	1181.727419456249	-81.78285510577757	3711.0623284598123	1134.7040625429956	2.682409768754432	3847.9916858350475	969.5078975621091	-67.02349857048273	3961.267381306673	821.6741097181193	-134.6684285397016	3958.9928768346786	819.0865027401537	-160.5605883093255	3978.141865267829	814.937867319818	-175.4048859281784	3993.8245130308514	809.7432861592968	-183.09609132508572	4008.906500851284	803.4405209736992	-187.24402437912002	3965.8039733354385	809.8692509288305	-154.10473555241356	3987.4842213798393	786.3750947031178	-171.15625593770346	4010.02099076961	773.8465954171014	-179.523273684361	4024.5267200484395	771.8561237669552	-183.63691049491186	4036.866753772118	774.119879789608	-186.3077823960633	3971.787712357512	804.5981047903383	-146.14724129441498	3996.1684505575327	778.8303571392827	-158.47556794544707	4021.489069174067	764.5447355817532	-166.49599506592057	4039.3392945070673	761.8484294118715	-170.92645179247248	4053.0114786631566	764.1820374959951	-173.59000657807516	3975.4059915974103	801.4150305224307	-140.11177169416092	4000.233135871864	775.3875527142167	-145.98445111178583	4023.009504157605	762.349290867282	-151.8212362412216	4040.602826257627	759.4368404901579	-155.4820054146355	4053.6359993323526	761.4833462944011	-157.69603822290017	3979.389169105946	798.8882149708451	-132.4912115135136	4004.4352496102742	773.254154978855	-133.25761920935315	4023.668582450578	762.0119611470279	-136.10560101274325	4036.9824701292728	759.4998358667062	-137.89252588382766	4048.804707303137	761.0895330403781	-139.34548389202843
4	0.025	4081.203	893.81699	129.612	4147.468397965752	889.0398580553893	75.32859775862411	4064.1878109471054	488.75996036672996	-13.757323732587766	4047.0386744609946	106.55642083288575	-66.61365918846452	3938.831225450851	28.884777960667247	68.6351027084969	4029.9200168132206	873.7922779556905	197.20390030049472	3930.9691564252425	480.6582100538566	302.00649713569044	3834.315748048131	64.89807701441835	406.97688695098657	3685.652448185564	-2.201414137105619	309.10863445003577	4014.281471191199	1009.3816457666794	79.41242248252556	3950.8899462631352	1065.7748046219435	32.79245671395108	3880.6883950237284	1117.555794693511	-17.683448189614545	3807.7782647109025	1155.3780462534523	-68.52697873661877	3729.14685062859	1197.5797111393315	-120.67609296918751	3654.4558398906	1233.6615181908417	-165.00786519823208	3515.9144324971976	1312.1597557201185	-173.49589911763783	3770.832606382659	1184.045401283146	-124.21511609966657	3815.620930801596	1164.7060388420107	-206.03593903688517	3850.8233977496407	949.327954514419	-189.43878049622302	3908.817310551291	764.9258898165864	-185.92300227965194	3899.598715819343	753.8328812035376	-205.4714801079925	3884.749042516176	736.2558775509601	-208.14030608379886	3876.559339994228	722.2441052458422	-207.20985611872925	3871.5725800918985	709.0479327561615	-204.04824292221613	3907.6475160468026	746.2918756997028	-198.35290248545294	3908.7220556140483	711.9984781500045	-202.30191728506978	3903.157904424216	689.0639817595558	-199.25034215989288	3894.397996899487	679.420072247507	-196.13519268957654	3883.5719572632242	674.5504057491283	-192.73520840138488	3913.1621240505897	742.712477147221	-190.35409938089379	3917.1948474999945	707.3273688864671	-189.88094568318033	3911.8395311988475	681.9413746536522	-185.4755950609717	3901.614728419344	670.1336647064849	-181.20118777778404	3889.9361583215623	664.7214216937398	-177.23009678761423	3917.1091445736947	741.0308985699033	-184.64361614987735	3924.3788627707504	707.777566738411	-179.38371585816503	3920.4360266372237	685.3392644523113	-174.445035144222	3910.958333095649	673.7842308514328	-169.73841161665325	3900.1599432205944	668.6169080679009	-165.72802735077545	3921.00979697485	740.3056811005282	-177.62108872999514	3930.345595564271	709.2543119450048	-168.6077129667999	3928.2869318370963	690.9453664569057	-162.96112901416967	3921.9052984783384	682.3520322495673	-158.70968321055778	3912.6455276821234	677.6796460013982	-154.68612552269227	3739.389014348305	1181.6971361778294	-82.2542353563509	3710.758660586904	1133.8620946736453	1.788911760254817	3848.8113475294576	969.9243126698204	-69.0265186544498	3963.615844838047	823.3837899278057	-137.3698171469584	3961.5401862352787	821.0602219290755	-163.13040925511143	3980.877341503453	817.0673986341612	-177.73863445151025	3996.695617603046	811.9696340359743	-185.29273136209753	4011.894597381583	805.7375788144807	-189.34971058184755	3968.3923502175676	811.8370027714305	-156.7784343939093	3990.428661828507	788.6431297457144	-173.81041326295636	4013.1791566127004	776.2609997577555	-182.06708430498622	4027.7676990938776	774.3133879872642	-186.03829729701832	4040.14250949398	776.5801489844899	-188.5414903118331	3974.374556692844	806.5206299896173	-148.89125155759186	3999.1017681557823	781.0213241451454	-161.23857818892498	4024.654205672559	766.8884005757673	-169.14781504321786	4042.60367031707	764.2404341585633	-173.4108676594032	4056.3135789063504	766.5756924905597	-175.89310158018236	3977.9831133993375	803.2985585514976	-142.9071136972501	4003.113635014553	777.479617440631	-148.84476479856295	4026.0900758585017	764.5668429330486	-154.5940172155167	4043.7780688048106	761.6969812095681	-158.09829252007876	4056.8462136689	763.7431246811911	-160.14419924254236	3981.9412516312973	800.7132224775664	-135.3371687043134	4007.251764525499	775.2365267894792	-136.19824735944104	4026.6408902097155	764.0820393261873	-138.99047968066614	4040.021694598284	761.5947977649749	-140.67019585642117	4051.8736809270604	763.1806160489303	-141.97821418191285
